<?xml version="1.0" encoding="utf-8"?>
<!-- Generator: Adobe Illustrator 26.0.2, SVG Export Plug-In . SVG Version: 6.00 Build 0)  -->
<svg version="1.1" id="图层_1" xmlns="http://www.w3.org/2000/svg" xmlns:xlink="http://www.w3.org/1999/xlink" x="0px" y="0px"
	 viewBox="0 0 30 30" style="enable-background:new 0 0 30 30;" xml:space="preserve">
<style type="text/css">
	.st0{fill:#DDDDDD;}
	.st1{fill:#A0CEC7;}
	.st2{fill:#FFFFFF;}
	.st3{fill:none;stroke:#020202;stroke-width:0.5;stroke-linecap:round;stroke-linejoin:round;stroke-miterlimit:10;}
	.st4{fill:#A0CEC7;stroke:#020202;stroke-width:0.5;stroke-miterlimit:10;}
	.st5{fill:#FFFFFF;stroke:#020202;stroke-width:0.5;stroke-miterlimit:10;}
	.st6{fill:none;stroke:#020202;stroke-width:0.5;stroke-miterlimit:10;}
	.st7{fill:#020202;}
</style>
<path class="st0" d="M15.2,30h-0.6C6.9,30,0.7,23.7,0.7,16.1v-4.2C0.7,5.4,6.1,0,12.6,0h4.8c6.5,0,11.9,5.4,11.9,11.9v4.2
	C29.2,23.7,22.9,30,15.2,30L15.2,30z"/>
<path class="st1" d="M15,3.7v11.2H3V8.5l3-4.1l5.2-2.3"/>
<path class="st2" d="M15,3.7v11.2h12V8.5l-3-4.1l-5.2-2.3"/>
<g>
	<path class="st3" d="M15,3.5l-2.9-1.2C11.6,2,11,2,10.5,2.2L6.3,4.3C6,4.4,5.8,4.5,5.6,4.8L3.2,8C2.9,8.3,2.8,8.7,2.8,9.1v5.8h24.5
		V9.1c0-0.4-0.2-0.8-0.4-1.1l-2.5-3.2c-0.2-0.2-0.4-0.4-0.6-0.5l-4.2-2C19.1,2,18.5,2,18,2.4L15,3.5L15,3.5z"/>
	<circle class="st4" cx="9.5" cy="20" r="2"/>
	<circle class="st4" cx="20.5" cy="20" r="2"/>
	<circle class="st5" cx="15" cy="10.7" r="1.5"/>
	<path class="st6" d="M15,3.5v5.5"/>
	<circle class="st6" cx="19.5" cy="7" r="1.2"/>
	<circle class="st6" cx="23.5" cy="10.3" r="1.2"/>
	<path class="st6" d="M21.8,3.7L20.1,6 M24.5,9.8l2.4-1.1"/>
	<circle class="st5" cx="10.3" cy="7" r="1.2"/>
	<circle class="st5" cx="6.5" cy="10.3" r="1"/>
	<path class="st6" d="M8.2,3.7L9.8,6 M3,8.7l2.5,1.1"/>
</g>
<path class="st7" d="M17.5,26.8h-5.2c-0.3,0-0.5-0.2-0.5-0.5v-0.1c0-0.3,0.2-0.5,0.5-0.5h5.2c0.3,0,0.5,0.2,0.5,0.5v0.1
	C18.1,26.6,17.8,26.8,17.5,26.8L17.5,26.8z"/>
</svg>
