<svg t="1683430031227" class="icon" viewBox="0 0 1280 1024" version="1.1" xmlns="http://www.w3.org/2000/svg" p-id="16322" width="16" height="16">
<path d="
M 831.837532 351.931263
c 0 194.362039 -186.16364 351.931263 -415.918766 351.931264 -76.385081 0 -147.771138 -17.396602 -209.35911 -47.790666 -14.997071 7.998438 -31.993751 15.796915 -50.390158 22.795548
C 119.576645 692.664714 75.585237 703.862527 31.993751 703.862527
c  -13.797305 0 -26.194884 -8.998243 -30.394063 -22.195665
S 1.999609 654.072252 13.197422 645.873853
l 0.399922 -0.399922
c 0.399922 -0.399922 1.199766 -0.799844 2.199571 -1.599688 1.999609 -1.599688 4.999024 -3.999219 8.59832 -7.398555 7.198594 -6.598711 16.99668 -16.196837 26.594806 -28.594415 10.997852 -13.997266 21.395821 -30.793986 28.394454 -49.390353
C 29.394259 500.502246 0 429.116188 0 351.931263 0 157.569225 186.16364 0 415.918766 0
s 415.918766 157.569225 415.918766 351.931263
z 
M 462.909588 765.85042
C 697.663738 745.654364 895.825034 576.487405 895.825034 351.931263
c 0 -10.397969 -0.399922 -20.795938 -1.199765 -30.993946
C 1109.983206 334.134739 1279.750049 486.305019 1279.750049 671.868776
c 0 77.184925 -29.394259 148.570982 -79.184534 206.759617 6.998633 18.796329 17.396602 35.393087 28.394454 49.390353 9.598125 12.397579 19.396212 21.995704 26.594805 28.594415 3.599297 3.199375 6.598711 5.798867 8.598321 7.398555 0.999805 0.799844 1.799649 1.399727 2.19957 1.599688
l 0.399922 0.399922
c 11.197813 8.198399 15.796915 22.595587 11.597735 35.793009 -4.19918 13.197422 -16.596758 22.195665 -30.394063 22.195665 -43.591486 0 -87.582894 -11.197813 -124.175747 -24.995118 -18.396407 -6.998633 -35.593048 -14.79711 -50.390159 -22.795548
C 1011.602421 1006.403437 940.216364 1023.800039 863.831283 1023.800039
c  -191.162664 0 -352.331185 -109.178676 -400.921695 -257.949619
z 
M 455.910955 143.97188
c 0 -21.995704 -17.996485 -39.992189 -39.992189 -39.992189
s  -39.992189 17.996485 -39.992189 39.992189
v 27.994533
c  -15.197032 3.399336 -30.394064 8.798282 -44.39133 16.99668 -27.794571 16.596758 -51.789885 45.591095 -51.589924 87.782855 0.199961 40.592072 23.995313 66.187073 49.390354 81.384105 21.995704 13.197422 49.390353 21.595782 71.186096 27.994532
l 3.399336 0.999805
c 25.195079 7.598516 43.591486 13.597344 55.989065 21.395821 10.198008 6.39875 11.597735 10.797891 11.797696 16.396797 0.199961 9.998047 -3.599297 15.996876 -11.797696 20.9959 -9.998047 6.198789 -25.794962 9.998047 -42.791642 9.398164 -22.195665 -0.799844 -42.991603 -7.798477 -70.186292 -16.99668 -4.599102 -1.599688 -9.398164 -3.199375 -14.397188 -4.799063 -20.995899 -6.998633 -43.591486 4.399141 -50.590119 25.195079
s 4.399141 43.591486 25.195079 50.590119
c 3.799258 1.199766 7.998438 2.599492 12.197617 4.19918 16.596758 5.798867 35.793009 12.397579 56.388987 16.796719
V 559.890646
c 0 21.995704 17.996485 39.992189 39.992189 39.992189
s 39.992189 -17.996485 39.992189 -39.992189
v  -27.59461
c 15.996876 -3.399336 31.993751 -8.998243 46.390939 -17.996485 28.594415 -17.796524 50.190197 -48.190588 49.590315 -89.982425 -0.599883 -40.592072 -23.395431 -66.786956 -49.190393 -83.183754 -22.995509 -14.397188 -51.789885 -23.19547 -74.185511 -29.994141
l  -1.399726 -0.399922
c  -25.595001 -7.798477 -43.791447 -13.397383 -56.588948 -20.9959 -10.397969 -6.198789 -10.59793 -9.798086 -10.59793 -13.397383 0 -7.398555 2.799453 -12.997461 12.397579 -18.596368 10.797891 -6.39875 27.194689 -10.198008 42.991603 -9.998047 19.196251 0.199961 40.392111 4.399141 62.387815 10.397969 21.395821 5.598906 43.191564 -6.998633 48.990432 -28.394454
s  -6.998633 -43.191564 -28.394455 -48.990432
c  -12.997461 -3.399336 -27.394649 -6.798672 -42.191759 -9.398164
V 143.97188
z " p-id="16323">
</path>
</svg>