<?xml version="1.0" standalone="no"?><!DOCTYPE svg PUBLIC "-//W3C//DTD SVG 1.1//EN" "http://www.w3.org/Graphics/SVG/1.1/DTD/svg11.dtd"><svg t="1683706773743" class="icon" viewBox="0 0 1024 1024" version="1.1" xmlns="http://www.w3.org/2000/svg" p-id="28281" xmlns:xlink="http://www.w3.org/1999/xlink" width="32" height="32"><path d="M290.133333 972.8c-150.186667 0-273.066667-122.88-273.066666-273.066667s122.88-273.066667 273.066666-273.066666 273.066667 122.88 273.066667 273.066666-122.88 273.066667-273.066667 273.066667z m0-512c-133.12 0-238.933333 105.813333-238.933333 238.933333s105.813333 238.933333 238.933333 238.933334 238.933333-105.813333 238.933334-238.933334-105.813333-238.933333-238.933334-238.933333z" fill="" p-id="28282"></path><path d="M512 563.2c-3.413333 0-10.24 0-13.653333-3.413333-6.826667-6.826667-6.826667-17.066667 0-23.893334l136.533333-136.533333c6.826667-6.826667 17.066667-6.826667 23.893333 0s6.826667 17.066667 0 23.893333l-136.533333 136.533334c0 3.413333-6.826667 3.413333-10.24 3.413333zM443.733333 494.933333c-3.413333 0-10.24 0-13.653333-3.413333-6.826667-6.826667-6.826667-17.066667 0-23.893333l409.6-409.6c6.826667-6.826667 17.066667-6.826667 23.893333 0l68.266667 68.266666c6.826667 6.826667 6.826667 17.066667 0 23.893334l-34.133333 34.133333c-6.826667 6.826667-17.066667 6.826667-23.893334 0s-6.826667-17.066667 0-23.893333l23.893334-23.893334L853.333333 92.16 457.386667 491.52c-3.413333 3.413333-10.24 3.413333-13.653334 3.413333zM221.866667 836.266667c-37.546667 0-68.266667-30.72-68.266667-68.266667s30.72-68.266667 68.266667-68.266667 68.266667 30.72 68.266666 68.266667-30.72 68.266667-68.266666 68.266667z m0-102.4c-20.48 0-34.133333 13.653333-34.133334 34.133333s13.653333 34.133333 34.133334 34.133333 34.133333-13.653333 34.133333-34.133333-13.653333-34.133333-34.133333-34.133333zM894.293333 529.066667c-17.066667 0-34.133333-6.826667-47.786666-17.066667-6.826667-6.826667-6.826667-17.066667-3.413334-23.893333 6.826667-6.826667 17.066667-6.826667 23.893334-3.413334 17.066667 17.066667 54.613333 6.826667 78.506666-17.066666 13.653333-13.653333 20.48-30.72 23.893334-44.373334 3.413333-13.653333 0-27.306667-10.24-34.133333-20.48-20.48-54.613333-3.413333-78.506667 13.653333l-3.413333 6.826667c-51.2 37.546667-92.16 40.96-122.88 10.24-30.72-30.72-23.893333-88.746667 13.653333-129.706667 37.546667-37.546667 92.16-47.786667 126.293333-17.066666 6.826667 6.826667 6.826667 17.066667 3.413334 23.893333-6.826667 6.826667-17.066667 6.826667-23.893334 3.413333-20.48-17.066667-54.613333-10.24-81.92 13.653334-27.306667 27.306667-34.133333 61.44-13.653333 81.92 20.48 20.48 54.613333 3.413333 78.506667-13.653334l6.826666-3.413333c51.2-37.546667 92.16-40.96 122.88-10.24 17.066667 17.066667 23.893333 37.546667 20.48 64.853333-3.413333 23.893333-17.066667 47.786667-34.133333 64.853334-23.893333 17.066667-51.2 30.72-78.506667 30.72z" fill="" p-id="28283"></path><path d="M989.866667 529.066667c-3.413333 0-10.24 0-13.653334-3.413334l-238.933333-238.933333c-6.826667-6.826667-6.826667-17.066667 0-23.893333s17.066667-6.826667 23.893333 0l238.933334 238.933333c6.826667 6.826667 6.826667 17.066667 0 23.893333 0 3.413333-6.826667 3.413333-10.24 3.413334z" fill="" p-id="28284"></path></svg>