<?xml version="1.0" encoding="utf-8"?>
<!-- Generator: Adobe Illustrator 26.0.2, SVG Export Plug-In . SVG Version: 6.00 Build 0)  -->
<svg version="1.1" id="图层_1" xmlns="http://www.w3.org/2000/svg" xmlns:xlink="http://www.w3.org/1999/xlink" x="0px" y="0px"
	 viewBox="0 0 64 32" enable-background="new 0 0 64 32" xml:space="preserve">
<g>
	<path opacity="0.4" fill="#009B14" d="M3.137,12.604c0.74,0.472,1.459,1.015,2.154,1.627c0.786-0.707,1.343-1.297,1.667-1.768
		L8,13.524c-0.563-0.084-1.808,0.972-2.223,1.273c1.603,2.576,2.864,8.041-0.903,9.268c-0.093-0.566-0.718-1.086-1.876-1.557
		l0.07-0.212c3.814,1.359,3.408-1.857,3.056-4.598c-1.066,1.085-2.525,2.052-4.376,2.9l-0.139-0.212
		c1.713-1.037,3.103-2.264,4.168-3.679C5.544,16,5.314,15.505,5.082,15.222c-0.649,0.378-1.714,0.896-3.195,1.556l-0.139-0.283
		c1.25-0.613,2.246-1.226,2.987-1.84c-0.417-0.566-1.02-1.202-1.807-1.91L3.137,12.604z"/>
	<path opacity="0.4" fill="#009B14" d="M7.792,11.826l-0.973,0.566v-1.698c-1.108,0.035-3.491-0.127-4.515,0.213L1.678,10.27h5.14
		c0-0.849-0.024-1.698-0.07-2.547l1.737,0.778L7.792,8.996v1.274h3.403c0-0.849-0.023-1.698-0.069-2.547l1.736,0.778l-0.695,0.495
		v1.274h2.64l1.111-0.99l1.389,1.414h-5.14v1.203l-0.973,0.425v-1.628H7.792V11.826z"/>
	<path opacity="0.4" fill="#009B14" d="M11.195,16.071c0-1.556-0.023-2.759-0.069-3.608l1.597,0.778l-0.556,0.495v2.335h2.779
		l1.181-0.99l1.389,1.415h-4.654c0.727,3.325,1.871,5.432,4.793,6.366v0.212c-0.556,0-0.972,0.26-1.25,0.78
		c-2.679-1.77-3.269-3.827-3.89-7.358h-0.347c-0.374,4.122-1.355,6.175-5.419,7.782L6.68,23.995c3.411-1.969,4.16-3.65,4.515-7.499
		c-0.981,0.014-2.569-0.082-3.473,0.212l-0.625-0.637H11.195z"/>
	<path opacity="0.4" fill="#009B14" d="M13.14,12.958l0.139-0.213c1.652,0.769,2.878,1.793,1.459,2.83
		C14.141,15.029,13.955,13.684,13.14,12.958z"/>
	<path opacity="0.4" fill="#009B14" d="M26.061,18.97c0,2.122,0.023,3.609,0.07,4.458l-1.042,0.637
		c0.046-1.322,0.069-2.948,0.069-4.882c-3.056,0.849-4.77,1.533-5.14,2.052l-0.694-1.414c0.556-0.095,1.157-0.212,1.806-0.354V9.279
		c-0.314-0.036-0.946,0.059-1.25,0.141l-0.556-0.566h6.529l0.834-0.849l1.25,1.274h-1.876v9.126l2.084-0.424l0.07,0.283
		L26.061,18.97z M22.032,9.279v2.971h3.126V9.279H22.032z M25.158,12.675h-3.126v3.042h3.126V12.675z M22.032,16.141v3.113
		l3.126-0.637v-2.476H22.032z M26.547,10.623h5.905l0.556-0.707l1.25,0.99c-1.79,2.227-1.784,6.021-3.195,7.923
		c1.204,1.698,2.639,2.783,4.307,3.255v0.283c-0.603,0.093-1.066,0.376-1.389,0.848c-1.343-0.941-2.478-2.122-3.403-3.536
		c-1.25,1.792-2.687,3.206-4.307,4.245l-0.139-0.213c1.62-1.461,2.917-3.065,3.89-4.811c-0.973-2.592-1.575-5.21-1.806-7.852
		c-0.28-0.036-0.842,0.061-1.112,0.141L26.547,10.623z M28.562,11.048c0.462,2.83,1.111,5.118,1.945,6.863
		c0.879-1.982,1.551-4.269,2.015-6.863H28.562z"/>
	<path opacity="0.4" fill="#009B14" d="M44.747,22.155h-2.986v-0.424c2.087,0.376-1.944-5.565-1.877-6.203l-1.111,1.604
		c0.297,0.732-0.851,5.241,1.042,4.599v0.424h-3.195v-0.424c0.461,0.009,1.087,0.055,1.042-0.567c0,0,0-10.117,0-10.117
		c0.046-0.616-0.582-0.581-1.042-0.566v-0.425h3.195v0.425c-1.909-0.708-0.741,4.927-1.042,5.675c0.03-0.639,5.45-6.136,2.57-5.675
		v-0.425h2.987v0.425c-1.448-0.188-2.941,3.126-3.751,3.962c0.678,0.756,2.699,7.71,4.168,7.287V22.155z"/>
	<path opacity="0.4" fill="#009B14" d="M45.65,10.482v-0.425h6.807l0.765,2.406l-0.348,0.141c-0.833-2.164-3.061-2.485-4.966-1.981
		c-0.345,0.032-0.108,4.565-0.174,4.811c1.414,0.013,3.769,0.363,3.335-1.84h0.416v4.175h-0.416
		c0.386-2.212-1.882-1.956-3.335-1.911c0.088,0.261-0.2,5.688,0.174,5.73c2.046,0.518,4.61,0.157,5.175-2.334l0.348,0.141
		l-0.765,2.759H45.58v-0.424c0.461,0.009,1.087,0.055,1.042-0.567c0,0,0-10.117,0-10.117C46.662,10.465,46.106,10.459,45.65,10.482z
		"/>
	<path opacity="0.4" fill="#009B14" d="M60.585,11.331c0.127-0.666-0.268-0.887-0.903-0.849v-0.425h2.709v0.425
		c-1.691-0.338-2.792,5.678-3.474,6.579c0,0,0,4.103,0,4.103c-0.029,0.681,0.797,0.564,1.25,0.566v0.424h-3.612v-0.424
		c0.471-0.02,1.31,0.145,1.25-0.567c0,0,0-3.679,0-3.679c-0.583-0.71-2.008-7.346-3.403-7.003v-0.425h3.057v0.425
		c-2.388-0.723,1.155,5.409,1.042,6.084h0.139L60.585,11.331z"/>
</g>
</svg>
